<?xml version="1.0" encoding="UTF-8" standalone="no"?>
<!-- Generator: Adobe Illustrator 22.0.0, SVG Export Plug-In . SVG Version: 6.00 Build 0)  -->

<svg
   xmlns:dc="http://purl.org/dc/elements/1.1/"
   xmlns:cc="http://creativecommons.org/ns#"
   xmlns:rdf="http://www.w3.org/1999/02/22-rdf-syntax-ns#"
   xmlns:svg="http://www.w3.org/2000/svg"
   xmlns="http://www.w3.org/2000/svg"
   xmlns:xlink="http://www.w3.org/1999/xlink"
   xmlns:sodipodi="http://sodipodi.sourceforge.net/DTD/sodipodi-0.dtd"
   xmlns:inkscape="http://www.inkscape.org/namespaces/inkscape"
   version="1.1"
   id="Ebene_1"
   x="0px"
   y="0px"
   viewBox="0 0 180 180"
   xml:space="preserve"
   sodipodi:docname="signalk.svg"
   width="180"
   height="180"
   inkscape:version="0.92.3 (2405546, 2018-03-11)"><metadata
   id="metadata80"><rdf:RDF><cc:Work
       rdf:about=""><dc:format>image/svg+xml</dc:format><dc:type
         rdf:resource="http://purl.org/dc/dcmitype/StillImage" /><dc:title /></cc:Work></rdf:RDF></metadata><defs
   id="defs78">
	
	

		
	
				<defs
   id="defs26">
					<rect
   height="111.402"
   width="157.19701"
   y="-0.59799999"
   x="0"
   id="SVGID_3_" />
				</defs>
				<clipPath
   id="SVGID_4_">
					<use
   height="100%"
   width="100%"
   y="0"
   x="0"
   id="use28"
   style="overflow:visible"
   xlink:href="#SVGID_3_" />
				</clipPath>
				
				
				
			</defs><sodipodi:namedview
   pagecolor="#ffffff"
   bordercolor="#666666"
   borderopacity="1"
   objecttolerance="10"
   gridtolerance="10"
   guidetolerance="10"
   inkscape:pageopacity="0"
   inkscape:pageshadow="2"
   inkscape:window-width="1916"
   inkscape:window-height="1168"
   id="namedview76"
   showgrid="false"
   fit-margin-top="0"
   fit-margin-left="0"
   fit-margin-right="0"
   fit-margin-bottom="0"
   inkscape:zoom="6.025986"
   inkscape:cx="82.890615"
   inkscape:cy="76.103323"
   inkscape:window-x="0"
   inkscape:window-y="0"
   inkscape:window-maximized="0"
   inkscape:current-layer="g39" />
<style
   type="text/css"
   id="style2">
	.st0{fill:#003399;}
	.st1{clip-path:url(#SVGID_2_);}
	.st2{clip-path:url(#SVGID_4_);fill:#003399;}
	.st3{clip-path:url(#SVGID_4_);fill:#FFCC00;}
</style>
<g
   id="g39"
   transform="translate(11.4015,34.897027)">
			<defs
   id="defs20">
				<rect
   id="SVGID_1_"
   x="0"
   y="-0.59799999"
   width="157.19701"
   height="111.402" />
			</defs>
			<clipPath
   id="SVGID_2_">
				<use
   xlink:href="#SVGID_1_"
   style="overflow:visible"
   id="use22"
   x="0"
   y="0"
   width="100%"
   height="100%" />
			</clipPath>
			<path
   style="fill:#000000"
   inkscape:connector-curvature="0"
   id="path31"
   clip-path="url(#SVGID_4_)"
   d="m 0.607,75.285 c 2.957,-1.872 10.882,6.629 21.713,14.362 7.039,5.026 18.661,8.853 28.952,8.143 16.757,-1.156 23.71,-4.386 37.85,-11.763 11.088,-5.785 22.27,-13.948 31.82,-19.767 5.646,-3.441 12.449,-6.567 20.107,-8.932 9.948,-3.071 16.148,-0.501 16.148,0.494 0,1.708 -11.752,7.285 -20.688,13.323 -11.49,7.764 -16.879,11.531 -19.509,13.257 -7.518,4.935 -20.387,13.411 -25.948,16.092 -8.695,4.192 -18.633,8.229 -30.899,9.782 C 44.08,112.311 26.842,108.394 15.435,99.718 1.721,89.287 -1.548,76.65 0.607,75.285"
   class="st2" /><path
   style="fill:#000000"
   d="m 93.675781,34.310547 c -0.652,0.354 -3.373344,6.576891 -3.277343,6.962891 0.165,0.661 1.565671,1.032953 1.638671,1.251953 0.29,0.868 -1.542062,5.111062 -3.664062,10.414062 -0.997,2.494 -2.051891,3.788219 -6.462891,3.449219 -2.986,-0.229 -11.343812,-1.800406 -16.007812,-0.06641 -8.945,3.325 -11.411203,11.237047 -17.158203,26.123046 -1.811,4.691001 -14.230469,36.798832 -14.230469,36.798832 0,0 5.365758,3.84613 10.679687,5.82813 0.02065,-0.059 4.483324,-12.804 9.560547,-26.042977 2.54449,-6.634809 5.238438,-13.383979 7.603516,-18.712891 1.182539,-2.664456 2.281864,-4.972748 3.24414,-6.742187 0.962277,-1.769438 1.732732,-2.983865 2.5,-3.564453 1.373897,-1.039255 3.211898,-1.320148 5.15625,-1.212891 1.944353,0.107255 4.017763,0.607443 5.929688,1.220703 3.82385,1.22652 7.011719,2.921875 7.011719,2.921875 l 0.394531,0.210938 -21.457031,54.353523 c 7.353274,-0.90113 16.504892,-3.13678 26.318359,-7.78516 17.190002,-8.143 26.617192,-16.06055 26.617192,-16.06055 l 0.38476,-1.06054 c 5.497,-13.701008 7.32936,-17.64418 3.56836,-24.20118 -2.853,-4.975 -8.87008,-8.776203 -11.95508,-11.283203 -2.387,-1.939 -3.08675,-4.434343 -2.21875,-6.652343 2.77,-7.078001 3.63519,-9.594641 4.24219,-9.931641 0.86,-0.478 2.02122,0.666062 2.69922,0.289062 0.868,-0.482 2.97587,-6.238765 2.79687,-7.134765 -0.193,-0.965 -23.238059,-9.738047 -23.914059,-9.373047 z"
   transform="translate(-11.4015,-34.897027)"
   id="path33"
   inkscape:connector-curvature="0"
   sodipodi:nodetypes="cccccccccsssccscccccccccccccc" />
		</g>
<g
   id="g45"
   transform="translate(0,69.196053)">
</g>
<g
   id="g47"
   transform="translate(0,69.196053)">
</g>
<g
   id="g49"
   transform="translate(0,69.196053)">
</g>
<g
   id="g51"
   transform="translate(0,69.196053)">
</g>
<g
   id="g53"
   transform="translate(0,69.196053)">
</g>
<g
   id="g55"
   transform="translate(0,69.196053)">
</g>
<g
   id="g57"
   transform="translate(0,69.196053)">
</g>
<g
   id="g59"
   transform="translate(0,69.196053)">
</g>
<g
   id="g61"
   transform="translate(0,69.196053)">
</g>
<g
   id="g63"
   transform="translate(0,69.196053)">
</g>
<g
   id="g65"
   transform="translate(0,69.196053)">
</g>
<g
   id="g67"
   transform="translate(0,69.196053)">
</g>
<g
   id="g69"
   transform="translate(0,69.196053)">
</g>
<g
   id="g71"
   transform="translate(0,69.196053)">
</g>
<g
   id="g73"
   transform="translate(0,69.196053)">
</g>
</svg>